<svg width="32" height="33" viewBox="0 0 32 33" fill="none" xmlns="http://www.w3.org/2000/svg">
<path d="M27.414 24.939L22.337 19.862C23.386 18.281 24 16.388 24 14.353C24 8.83903 19.514 4.35303 14 4.35303C8.486 4.35303 4 8.83903 4 14.353C4 19.867 8.486 24.353 14 24.353C16.035 24.353 17.928 23.739 19.509 22.69L24.586 27.767C25.366 28.548 26.634 28.548 27.414 27.767C28.195 26.986 28.195 25.72 27.414 24.939ZM7 14.353C7 10.493 10.14 7.35303 14 7.35303C17.86 7.35303 21 10.493 21 14.353C21 18.213 17.86 21.353 14 21.353C10.14 21.353 7 18.213 7 14.353Z" fill="white"/>
</svg>
